<svg xmlns="http://www.w3.org/2000/svg" xmlns:xlink="http://www.w3.org/1999/xlink" width="500" zoomAndPan="magnify" viewBox="0 0 375 374.999991" height="500" preserveAspectRatio="xMidYMid meet" version="1.0"><defs><g/><clipPath id="id1"><path d="M 114.015625 151.164062 L 191.007812 151.164062 L 191.007812 231.234375 L 114.015625 231.234375 Z M 114.015625 151.164062 " clip-rule="nonzero"/></clipPath><clipPath id="id2"><path d="M 204.242188 120 L 279.550781 120 L 279.550781 152.617188 L 204.242188 152.617188 Z M 204.242188 120 " clip-rule="nonzero"/></clipPath></defs><g fill="#ffffff" fill-opacity="1"><g transform="translate(22.8037, 229.636565)"><g><path d="M 8.046875 0 L 8.046875 -78.28125 L 22.375 -78.28125 L 22.375 -43.328125 L 54.90625 -78.28125 L 72.328125 -78.28125 L 35.5 -39.25 C 38.582031 -37.632812 41.226562 -35.0625 43.4375 -31.53125 L 52.265625 -17.859375 C 53.804688 -15.503906 55.3125 -13.882812 56.78125 -13 C 58.25 -12.125 60.085938 -11.6875 62.296875 -11.6875 C 64.941406 -11.6875 67.253906 -12.347656 69.234375 -13.671875 L 72.546875 -2.53125 C 71.148438 -1.425781 69.363281 -0.5625 67.1875 0.0625 C 65.019531 0.6875 62.765625 1 60.421875 1 C 52.109375 1 45.640625 -2.640625 41.015625 -9.921875 L 29.65625 -27.34375 C 28.625 -28.882812 27.578125 -30.078125 26.515625 -30.921875 C 25.453125 -31.765625 24.070312 -32.375 22.375 -32.75 L 22.375 0 Z M 8.046875 0 "/></g></g></g><g fill="#ffffff" fill-opacity="1"><g transform="translate(111.633982, 229.636565)"><g/></g></g><g fill="#ffffff" fill-opacity="1"><g transform="translate(157.831856, 229.636565)"><g/></g></g><g fill="#ffffff" fill-opacity="1"><g transform="translate(204.01923, 229.636565)"><g><path d="M 21.0625 1 C 15.101562 1 10.03125 -0.414062 5.84375 -3.25 C 1.65625 -6.082031 -1.171875 -10.109375 -2.640625 -15.328125 L 9.15625 -20.609375 C 10.25 -17.597656 11.734375 -15.335938 13.609375 -13.828125 C 15.484375 -12.328125 17.929688 -11.578125 20.953125 -11.578125 C 27.492188 -11.578125 30.765625 -15.617188 30.765625 -23.703125 L 30.765625 -78.28125 L 45.203125 -78.28125 L 45.203125 -25.140625 C 45.203125 -16.753906 43.144531 -10.300781 39.03125 -5.78125 C 34.914062 -1.257812 28.925781 1 21.0625 1 Z M 21.0625 1 "/></g></g></g><g fill="#ffffff" fill-opacity="1"><g transform="translate(276.345795, 229.636565)"><g><path d="M -1.109375 0 L 32.296875 -78.28125 L 44.4375 -78.28125 L 76.515625 0 L 61.953125 0 L 54.90625 -17.859375 L 20.734375 -17.859375 L 13.453125 0 Z M 25.6875 -29.875 L 50.28125 -29.875 L 38.140625 -60.640625 Z M 25.6875 -29.875 "/></g></g></g><g clip-path="url(#id1)"><path fill="#ff6139" d="M 155.691406 231.164062 C 133.878906 231.164062 119.042969 211.707031 123.316406 191.046875 L 114.023438 191.046875 C 119.207031 185.6875 147.3125 156.628906 152.523438 151.234375 C 155.207031 154.007812 157.558594 156.4375 163.449219 162.527344 L 163.449219 156.761719 L 180.078125 156.761719 L 180.078125 179.726562 L 191.027344 191.046875 L 141.699219 191.046875 C 137.726562 201.597656 143.738281 214.980469 156.125 214.980469 C 160.875 214.980469 164.785156 213.902344 170.726562 208.402344 L 173.375 211.261719 C 152.558594 230.542969 128.761719 209.867188 139.152344 187.152344 L 181.839844 187.152344 L 176.179688 181.300781 L 176.179688 160.660156 L 167.34375 160.660156 L 167.34375 172.164062 C 160.410156 164.988281 155.757812 160.175781 152.527344 156.839844 C 147.375 162.164062 130.703125 179.40625 123.214844 187.152344 L 128.367188 187.152344 L 127.671875 189.628906 C 122.472656 208.128906 134.980469 227.265625 155.691406 227.265625 C 165.707031 227.265625 172.269531 224.40625 179.109375 217.070312 L 181.960938 219.726562 C 174.390625 227.847656 166.78125 231.164062 155.691406 231.164062 " fill-opacity="1" fill-rule="nonzero"/></g><g clip-path="url(#id2)"><path fill="#ff6139" d="M 267.191406 139.863281 L 267.191406 132.597656 L 268.417969 132.597656 L 268.417969 130.308594 L 260.484375 130.308594 L 260.484375 132.597656 L 261.714844 132.597656 L 261.714844 135.574219 L 241.992188 120.125 L 241.957031 120.171875 L 241.921875 120.125 L 204.289062 149.605469 L 206.546875 152.488281 L 241.957031 124.75 L 277.367188 152.488281 L 279.625 149.605469 Z M 267.191406 139.863281 " fill-opacity="1" fill-rule="nonzero"/></g></svg>